<?xml version="1.0" encoding="UTF-8"?>
<svg width="500" height="500" version="1.0" viewBox="0 0 375 375" xmlns="http://www.w3.org/2000/svg" zoomAndPan="magnify">
<path d="m47.535 174.28c-10.035 20.316 3.0547 50.305 25.703 51.188 9.3359 0.36328 18.199-3.832 27.414-5.3945s20.59 0.80078 24.133 9.4453c1.7031 4.1602 1.1836 8.8594 0.5625 13.312-2.457 17.715-5.8242 36.633 1.8203 52.805 7.6406 16.176 31.867 25.289 43.684 11.859 6.4102-7.2852 6.6875-17.875 8.6914-27.371 2.0039-9.4922 8.1641-20.043 17.863-20.027 5.2695 0.007813 9.9453 3.25 13.984 6.625 17.617 14.723 35.629 36.359 58.094 31.625 15.633-3.3008 26.098-20.266 24.809-36.188-1.2891-15.926-12.414-29.934-26.352-37.75-4.3516-2.4453-9.3242-4.707-11.465-9.2148-2.7969-5.8828 0.69141-13.098 5.8281-17.094 5.1445-3.9922 11.609-5.7617 17.57-8.3906 13.895-6.1367 25.918-18.508 27.711-33.594 1.7969-15.086-9.5781-31.629-24.758-32.047-9.4883-0.25781-18.02 5.207-26.707 9.0234-8.6914 3.8164-19.816 5.7109-26.891-0.61719-7.3945-6.6172-6.3047-18.148-6.6367-28.062-0.44531-13.336-4.8945-26.938-14.324-36.379-9.4297-9.4453-24.273-13.926-36.727-9.1328-11.773 4.5352-19.57 16.406-22.133 28.762-4.0898 19.738 11.828 41.965 8.2266 58.793-3.1602 14.742-13.773 8.8906-26.938 5.7695-29.07-6.875-67.062-10.543-83.164 22.055z" fill="#8c52ff"/>
</svg>
